REM DIRINDEX 1\6,1\2\7,1\2\8,1\2\9,1\3\10,1\3\11,1\4\12,1\4\13,1\4\14,1\5\15,1\5\16,1\5\17
REM DIRNAME folder01,folder02,folder03,folder04,folder05,folder06,folder07,folder08,folder09,folder10,folder11,folder12,folder13,folder14,folder15,folder16,folder17
TITLE ""
FILE "P2Q_t2_0722-0735.mp3" MP3
  TRACK 01 AUDIO
    TITLE "7:cjc040_5997"
    INDEX 01 00:00:00
  TRACK 02 AUDIO
    TITLE "0:"
    INDEX 01 00:01:05
  TRACK 03 AUDIO
    TITLE "8:cjc040_5998"
    INDEX 01 00:01:64
  TRACK 04 AUDIO
    TITLE "0:"
    INDEX 01 00:04:29
  TRACK 05 AUDIO
    TITLE "9:cjc040_5999"
    INDEX 01 00:05:01
  TRACK 06 AUDIO
    TITLE "0:"
    INDEX 01 00:06:22
  TRACK 07 AUDIO
    TITLE "7:cjc040_6000"
    INDEX 01 00:08:05
  TRACK 08 AUDIO
    TITLE "0:"
    INDEX 01 00:09:16
  TRACK 09 AUDIO
    TITLE "8:cjc040_6001"
    INDEX 01 00:10:00
  TRACK 10 AUDIO
    TITLE "0:"
    INDEX 01 00:11:19
  TRACK 11 AUDIO
    TITLE "9:cjc040_6002"
    INDEX 01 00:12:07
  TRACK 12 AUDIO
    TITLE "0:"
    INDEX 01 00:13:20
  TRACK 13 AUDIO
    TITLE "7:cjc040_6003"
    INDEX 01 00:15:05
  TRACK 14 AUDIO
    TITLE "0:"
    INDEX 01 00:16:40
  TRACK 15 AUDIO
    TITLE "8:cjc040_6004"
    INDEX 01 00:17:18
  TRACK 16 AUDIO
    TITLE "0:"
    INDEX 01 00:18:48
  TRACK 17 AUDIO
    TITLE "9:cjc040_6005"
    INDEX 01 00:19:26
  TRACK 18 AUDIO
    TITLE "0:"
    INDEX 01 00:20:71
  TRACK 19 AUDIO
    TITLE "7:cjc040_6006"
    INDEX 01 00:22:56
  TRACK 20 AUDIO
    TITLE "0:"
    INDEX 01 00:23:71
  TRACK 21 AUDIO
    TITLE "8:cjc040_6007"
    INDEX 01 00:24:47
  TRACK 22 AUDIO
    TITLE "0:"
    INDEX 01 00:27:08
  TRACK 23 AUDIO
    TITLE "9:cjc040_6008"
    INDEX 01 00:27:67
  TRACK 24 AUDIO
    TITLE "0:"
    INDEX 01 00:29:05
  TRACK 25 AUDIO
    TITLE "7:cjc040_6009"
    INDEX 01 00:30:61
  TRACK 26 AUDIO
    TITLE "0:"
    INDEX 01 00:32:03
  TRACK 27 AUDIO
    TITLE "8:cjc040_6010"
    INDEX 01 00:32:58
  TRACK 28 AUDIO
    TITLE "0:"
    INDEX 01 00:37:12
  TRACK 29 AUDIO
    TITLE "9:cjc040_6011"
    INDEX 01 00:37:69
  TRACK 30 AUDIO
    TITLE "0:"
    INDEX 01 00:39:13
  TRACK 31 AUDIO
    TITLE "7:cjc040_6012"
    INDEX 01 00:40:70
  TRACK 32 AUDIO
    TITLE "0:"
    INDEX 01 00:42:08
  TRACK 33 AUDIO
    TITLE "8:cjc040_6013"
    INDEX 01 00:42:61
  TRACK 34 AUDIO
    TITLE "0:"
    INDEX 01 00:46:35
  TRACK 35 AUDIO
    TITLE "9:cjc040_6014"
    INDEX 01 00:47:15
  TRACK 36 AUDIO
    TITLE "0:"
    INDEX 01 00:48:32
  TRACK 37 AUDIO
    TITLE "7:cjc040_6015"
    INDEX 01 00:50:15
  TRACK 38 AUDIO
    TITLE "0:"
    INDEX 01 00:51:22
  TRACK 39 AUDIO
    TITLE "8:cjc040_6016"
    INDEX 01 00:51:71
  TRACK 40 AUDIO
    TITLE "0:"
    INDEX 01 00:56:10
  TRACK 41 AUDIO
    TITLE "9:cjc040_6017"
    INDEX 01 00:56:63
  TRACK 42 AUDIO
    TITLE "0:"
    INDEX 01 00:57:70
  TRACK 43 AUDIO
    TITLE "7:cjc040_6018"
    INDEX 01 00:59:57
  TRACK 44 AUDIO
    TITLE "0:"
    INDEX 01 01:00:72
  TRACK 45 AUDIO
    TITLE "8:cjc040_6019"
    INDEX 01 01:01:50
  TRACK 46 AUDIO
    TITLE "0:"
    INDEX 01 01:06:43
  TRACK 47 AUDIO
    TITLE "9:cjc040_6020"
    INDEX 01 01:07:27
  TRACK 48 AUDIO
    TITLE "0:"
    INDEX 01 01:08:44
  TRACK 49 AUDIO
    TITLE "7:cjc040_6021"
    INDEX 01 01:10:31
  TRACK 50 AUDIO
    TITLE "0:"
    INDEX 01 01:11:35
  TRACK 51 AUDIO
    TITLE "8:cjc040_6022"
    INDEX 01 01:12:23
  TRACK 52 AUDIO
    TITLE "0:"
    INDEX 01 01:15:68
  TRACK 53 AUDIO
    TITLE "9:cjc040_6023"
    INDEX 01 01:16:40
  TRACK 54 AUDIO
    TITLE "0:"
    INDEX 01 01:17:47
  TRACK 55 AUDIO
    TITLE "7:cjc040_6024"
    INDEX 01 01:19:28
  TRACK 56 AUDIO
    TITLE "0:"
    INDEX 01 01:20:32
  TRACK 57 AUDIO
    TITLE "8:cjc040_6025"
    INDEX 01 01:21:12
  TRACK 58 AUDIO
    TITLE "0:"
    INDEX 01 01:22:74
  TRACK 59 AUDIO
    TITLE "9:cjc040_6026"
    INDEX 01 01:23:48
  TRACK 60 AUDIO
    TITLE "0:"
    INDEX 01 01:24:47
  TRACK 61 AUDIO
    TITLE "7:cjc040_6027"
    INDEX 01 01:26:29
  TRACK 62 AUDIO
    TITLE "0:"
    INDEX 01 01:27:46
  TRACK 63 AUDIO
    TITLE "8:cjc040_6028"
    INDEX 01 01:28:24
  TRACK 64 AUDIO
    TITLE "0:"
    INDEX 01 01:31:59
  TRACK 65 AUDIO
    TITLE "9:cjc040_6029"
    INDEX 01 01:32:31
  TRACK 66 AUDIO
    TITLE "0:"
    INDEX 01 01:33:46
  TRACK 67 AUDIO
    TITLE "7:cjc040_6030"
    INDEX 01 01:35:26
  TRACK 68 AUDIO
    TITLE "0:"
    INDEX 01 01:36:37
  TRACK 69 AUDIO
    TITLE "8:cjc040_6031"
    INDEX 01 01:37:22
  TRACK 70 AUDIO
    TITLE "0:"
    INDEX 01 01:39:27
  TRACK 71 AUDIO
    TITLE "9:cjc040_6032"
    INDEX 01 01:40:09
  TRACK 72 AUDIO
    TITLE "0:"
    INDEX 01 01:41:22
  TRACK 73 AUDIO
    TITLE "7:cjc040_6033"
    INDEX 01 01:43:09
  TRACK 74 AUDIO
    TITLE "0:"
    INDEX 01 01:44:23
  TRACK 75 AUDIO
    TITLE "8:cjc040_6034"
    INDEX 01 01:45:02
  TRACK 76 AUDIO
    TITLE "0:"
    INDEX 01 01:46:53
  TRACK 77 AUDIO
    TITLE "9:cjc040_6035"
    INDEX 01 01:47:35
  TRACK 78 AUDIO
    TITLE "0:"
    INDEX 01 01:48:50
  TRACK 79 AUDIO
    TITLE "7:cjc040_6036"
    INDEX 01 01:50:31
  TRACK 80 AUDIO
    TITLE "0:"
    INDEX 01 01:51:32
  TRACK 81 AUDIO
    TITLE "8:cjc040_6037"
    INDEX 01 01:52:12
  TRACK 82 AUDIO
    TITLE "0:"
    INDEX 01 01:54:05
  TRACK 83 AUDIO
    TITLE "9:cjc040_6038"
    INDEX 01 01:54:62
  TRACK 84 AUDIO
    TITLE "0:"
    INDEX 01 01:55:67
